<?xml version="1.0" standalone="no"?>
<!DOCTYPE svg PUBLIC "-//W3C//DTD SVG 20010904//EN"
 "http://www.w3.org/TR/2001/REC-SVG-20010904/DTD/svg10.dtd">
<svg version="1.0" xmlns="http://www.w3.org/2000/svg"
 width="512.000000pt" height="512.000000pt" viewBox="0 0 512.000000 512.000000"
 preserveAspectRatio="xMidYMid meet">
<metadata>
Created by potrace 1.11, written by Peter Selinger 2001-2013
</metadata>
<g transform="translate(0.000000,512.000000) scale(0.100000,-0.100000)"
fill="#000000" stroke="none">
<path d="M1605 4368 c-215 -24 -460 -107 -640 -218 -396 -243 -669 -641 -746
-1088 -10 -63 -19 -131 -19 -152 0 -46 -8 -70 -24 -70 -6 0 -28 -13 -48 -30
-95 -78 -105 -221 -24 -318 l28 -32 -33 -37 c-67 -77 -108 -213 -94 -318 10
-80 65 -184 129 -243 l54 -48 4 -285 c5 -274 6 -287 31 -365 62 -189 212 -337
402 -397 l70 -22 1865 0 1865 0 70 22 c190 60 340 208 402 397 25 78 26 91 31
365 l4 285 54 48 c64 59 119 163 129 243 14 105 -27 241 -95 318 l-33 38 25
27 c42 45 60 90 60 153 0 76 -30 131 -100 183 -48 36 -52 42 -52 81 0 71 -37
264 -70 365 -198 606 -721 1031 -1352 1100 -120 12 -1777 11 -1893 -2z m1973
-161 c638 -117 1126 -640 1188 -1274 l7 -73 -1832 0 -1831 0 0 -22 c0 -13 -3
-47 -6 -75 l-7 -53 1893 -2 1892 -3 19 -24 c26 -32 24 -66 -5 -89 -18 -14 -48
-21 -116 -25 -121 -9 -186 -27 -338 -93 -148 -65 -230 -84 -355 -84 -123 0
-204 19 -339 78 -202 89 -291 108 -471 99 -135 -7 -215 -27 -370 -96 -140 -62
-220 -81 -347 -81 -129 0 -205 18 -356 85 -206 91 -389 116 -583 80 -77 -15
-121 -31 -290 -104 -97 -43 -185 -61 -298 -61 -124 0 -211 20 -345 80 -142 64
-227 88 -347 97 -81 5 -99 10 -118 29 -28 28 -29 54 -4 85 l19 24 326 3 326 3
0 74 0 75 -271 0 -272 0 7 73 c34 342 198 670 458 911 236 220 543 352 878
379 25 2 439 3 920 2 775 -1 886 -3 968 -18z m-2457 -2748 c466 -252 543 -290
562 -281 12 5 256 136 542 291 l520 281 1012 0 1013 0 0 -90 0 -90 -810 0
-810 0 0 -75 0 -75 810 0 810 0 0 -73 c0 -155 -72 -290 -200 -375 -125 -84 55
-77 -2010 -77 -1746 0 -1838 1 -1892 18 -108 34 -207 115 -266 219 -46 81 -52
127 -52 380 l0 238 116 0 116 0 539 -291z m1274 278 c-11 -8 -180 -100 -376
-205 l-356 -192 -349 189 c-192 103 -362 195 -379 204 -28 15 25 16 725 17
632 0 751 -2 735 -13z"/>
<path d="M1690 3975 l0 -75 120 0 120 0 0 75 0 75 -120 0 -120 0 0 -75z"/>
<path d="M2440 3975 l0 -75 120 0 120 0 0 75 0 75 -120 0 -120 0 0 -75z"/>
<path d="M3190 3975 l0 -75 120 0 120 0 0 75 0 75 -120 0 -120 0 0 -75z"/>
<path d="M1310 3645 l0 -75 120 0 120 0 0 75 0 75 -120 0 -120 0 0 -75z"/>
<path d="M2060 3645 l0 -75 120 0 120 0 0 75 0 75 -120 0 -120 0 0 -75z"/>
<path d="M2820 3645 l0 -75 120 0 120 0 0 75 0 75 -120 0 -120 0 0 -75z"/>
<path d="M3570 3645 l0 -75 120 0 120 0 0 75 0 75 -120 0 -120 0 0 -75z"/>
</g>
</svg>
